<svg width="13" height="12" viewBox="0 0 13 12" fill="none" xmlns="http://www.w3.org/2000/svg">
<path d="M5.36719 11.9895C5.07324 11.9895 4.86133 11.8596 4.65625 11.593L1.1084 7.07443C0.978516 6.91037 0.910156 6.73264 0.910156 6.57541C0.910156 6.19943 1.17676 5.93283 1.56641 5.93283C1.8125 5.93283 1.9834 6.02853 2.1543 6.26779L5.33984 10.4377L11.4785 0.655487C11.6426 0.395721 11.793 0.306854 12.0664 0.306854C12.4424 0.306854 12.6885 0.552948 12.6885 0.928925C12.6885 1.08615 12.6406 1.23654 12.5176 1.43478L6.05762 11.6067C5.89355 11.8596 5.66113 11.9895 5.36719 11.9895Z" fill="white"/>
</svg>
