<svg width="39" height="44" viewBox="0 0 39 44" fill="none" xmlns="http://www.w3.org/2000/svg">
<path d="M10.9492 43.918C8.11719 43.918 6.28125 42.1211 6.14453 39.3281L4.79688 10.9102H2.45312C1.67188 10.9102 0.988281 10.2461 0.988281 9.42578C0.988281 8.625 1.67188 7.96094 2.45312 7.96094H11.3203V4.97266C11.3203 2.14062 13.1562 0.421875 16.1641 0.421875H23.5859C26.5938 0.421875 28.4297 2.14062 28.4297 4.97266V7.96094H37.3555C38.1562 7.96094 38.8008 8.625 38.8008 9.42578C38.8008 10.2266 38.1562 10.9102 37.3555 10.9102H35.0117L33.6641 39.3086C33.5273 42.1016 31.6523 43.918 28.8594 43.918H10.9492ZM14.4258 5.16797V7.96094H25.3242V5.16797C25.3242 4.05469 24.543 3.33203 23.3711 3.33203H16.3789C15.207 3.33203 14.4258 4.05469 14.4258 5.16797ZM11.2227 40.9688H28.5469C29.6992 40.9688 30.5391 40.1484 30.5781 38.9766L31.8672 10.9102H7.84375L9.21094 38.9766C9.26953 40.1289 10.1094 40.9688 11.2227 40.9688ZM14.1133 37.6289C13.3906 37.6289 12.9023 37.1797 12.8828 36.4766L12.2969 15.5977C12.2773 14.9141 12.7656 14.4453 13.5078 14.4453C14.2109 14.4453 14.6992 14.8945 14.7188 15.5781L15.3242 36.4766C15.3438 37.1602 14.8555 37.6289 14.1133 37.6289ZM19.8945 37.6289C19.1523 37.6289 18.6445 37.1602 18.6445 36.4766V15.5977C18.6445 14.9141 19.1523 14.4453 19.8945 14.4453C20.6367 14.4453 21.1641 14.9141 21.1641 15.5977V36.4766C21.1641 37.1602 20.6367 37.6289 19.8945 37.6289ZM25.6953 37.6289C24.9531 37.6289 24.4648 37.1602 24.4844 36.4766L25.0703 15.5977C25.0898 14.8945 25.5781 14.4453 26.2812 14.4453C27.0234 14.4453 27.5117 14.9141 27.4922 15.5977L26.9062 36.4766C26.8867 37.1797 26.3984 37.6289 25.6953 37.6289Z" fill="#FAF6F6"/>
</svg>
